<svg width="60" height="60" viewBox="0 0 60 60" fill="none" xmlns="http://www.w3.org/2000/svg">
<path d="M60.0001 28.2293V31.7436C59.8215 32.4629 59.846 33.2641 59.7493 34.0115C58.0258 47.2063 47.2395 58.0281 34.0239 59.7284C33.2765 59.825 32.4741 59.8018 31.7548 59.9791C30.5891 59.9314 29.4026 60.044 28.2393 59.9791C2.60678 58.5553 -9.52019 26.9902 8.79626 8.73368C27.0833 -9.49347 58.5775 2.63962 60.0001 28.2293ZM23.3171 31.861H43.5344C44.305 31.861 45.0267 30.6672 45.0084 29.9284C44.9912 29.2348 44.2487 28.1119 43.5344 28.1119H23.3171L31.2227 20.139C32.3065 18.2736 30.3371 16.3959 28.5316 17.5665L17.5728 28.5204C17.0493 29.2678 17.0469 30.7871 17.6291 31.5124L28.5965 42.4578C30.4692 43.5415 32.3395 41.5673 31.1701 39.7679L23.3171 31.861Z" fill="#3B82F6"/>
</svg>
