<svg width="16" height="13" viewBox="0 0 16 13" fill="none" xmlns="http://www.w3.org/2000/svg">
<g clip-path="url(#clip0_10096_3107)">
<path d="M0 11.2901V3.98207C0.0757125 3.61319 0.198639 3.27969 0.437261 2.98631C1.24585 1.99229 2.47001 2.35167 3.58358 2.25805C4.31986 1.26791 4.60698 0.12288 6.02765 0.0266699C7.28243 -0.0587542 8.62909 0.0944052 9.89409 0.0266699C11.3479 0.117271 11.6168 1.24375 12.3692 2.25891C13.3433 2.35383 14.4543 2.04449 15.2675 2.73306C15.664 3.06872 15.9098 3.57005 15.9536 4.09251C15.8396 6.40285 16.1008 8.85642 15.9536 11.1499C15.8881 12.1733 15.1046 12.9447 14.1 13.0008L1.792 12.9986C0.910676 12.9421 0.0952786 12.1914 0 11.291L0 11.2901ZM7.84517 2.69466C4.47427 2.78009 2.53169 6.63755 4.41174 9.48416C6.1795 12.1603 10.1676 11.9999 11.7205 9.19208C13.3645 6.21949 11.1735 2.61053 7.84517 2.6951V2.69466ZM12.9222 3.89492C12.4122 3.98207 12.3433 4.78152 12.869 4.97782C13.0893 5.06022 13.8154 5.0572 14.0293 4.95538C14.4879 4.73665 14.3739 3.94669 13.8818 3.88672C13.6899 3.86342 13.1085 3.86342 12.9226 3.89492H12.9222Z" fill="#3B82F6"/>
<path d="M7.96573 4.62543C9.83302 4.61508 11.0142 6.71487 10.0023 8.33146C9.06866 9.8225 6.89895 9.84882 5.9568 8.35605C4.94361 6.75068 6.10227 4.63535 7.96573 4.625V4.62543Z" fill="#3B82F6"/>
</g>
<defs>
<clipPath id="clip0_10096_3107">
<rect width="16" height="13" fill="white"/>
</clipPath>
</defs>
</svg>
