<svg width="57" height="46" viewBox="0 0 57 46" fill="none" xmlns="http://www.w3.org/2000/svg">
<g clip-path="url(#clip0_10176_762)">
<path d="M56.8991 24.9825C56.6824 26.6934 54.5404 29.2173 52.7399 29.2173H50.4658C51.2139 27.5377 51.7988 25.7851 51.9116 23.9282C52.2159 18.9696 51.6845 14.1674 49.5648 9.67047C49.3421 9.19695 48.5821 8.13972 48.4916 7.73916C48.3268 7.00804 48.3832 3.50279 48.4649 2.6302C48.6564 0.576791 51.5895 0.471068 51.8003 2.85356L51.7958 12.388C54.4113 12.4163 56.3974 14.1883 56.8991 16.7346C56.6616 19.3136 57.2167 22.4749 56.8991 24.9825Z" fill="white"/>
<path d="M56.8991 30.9952V35.23L56.3751 37.3222C55.4236 40.7306 51.0744 44.3699 47.5267 44.3699H43.5887C43.798 43.271 43.988 42.108 43.5887 41.0255H47.4154C48.5465 41.0255 50.7241 39.7881 51.536 38.9795C53.3588 37.1658 53.6913 34.9248 53.6201 32.4351C54.8002 32.1313 55.8556 31.6057 56.8991 30.9922V30.9952Z" fill="white"/>
<path d="M27.1522 0.0445413C37.3795 -0.632981 46.694 6.4877 48.3268 16.7071C49.4742 23.8933 48.3728 31.5366 39.8792 32.5626C32.444 32.1323 24.3912 33.1225 17.0287 32.5567C13.2762 32.2678 9.85476 29.5071 8.82015 25.8693C8.2739 23.9499 8.31694 20.9256 8.42679 18.899C8.97452 8.73469 17.0985 0.71015 27.1522 0.0445413ZM20.8302 10.9683C10.968 11.9287 11.0883 26.7523 21.0217 27.5415C25.8355 27.9242 31.1273 27.2616 35.9916 27.5415C46.1136 26.3681 46.0275 11.9749 35.8862 10.9311C31.0264 11.2527 25.6277 10.5007 20.8302 10.9683Z" fill="white"/>
<path d="M6.54462 29.2123H4.27056C2.23399 29.2123 0.258292 26.5141 0.106885 24.5902C-0.0296773 22.851 -0.100927 17.5991 0.301338 16.0832C0.896573 13.8437 2.93314 12.3948 5.21314 12.3814L5.22204 2.63852C5.4922 0.646164 8.1136 0.638718 8.49212 2.23052C8.67618 3.00334 8.63017 6.51603 8.54556 7.42585C8.48767 8.04083 7.3061 9.9498 6.96767 10.745C5.22353 14.8414 4.82423 19.4828 5.09735 23.9216C5.21165 25.78 5.79649 27.5326 6.54314 29.2108L6.54462 29.2123Z" fill="white"/>
<path d="M33.0259 39.2735C34.1718 39.1171 37.5681 39.1216 38.5641 39.5579C41.6174 40.895 40.8886 45.6288 37.3261 45.937C36.1401 46.0397 33.1045 46.0651 32.0877 45.6198C29.1249 44.3229 29.7558 39.7187 33.0244 39.2735H33.0259Z" fill="white"/>
<path d="M21.0499 14.3119C25.7851 14.5382 30.9804 13.9039 35.6636 14.2762C41.6352 14.7512 41.7762 23.4264 35.8684 24.1859C31.1585 23.9297 26.0077 24.5745 21.3483 24.2037C15.4315 23.7332 15.2104 15.1622 21.0499 14.3104V14.3119ZM21.7104 16.9818C20.3166 17.223 20.2825 18.9161 20.4086 20.0224C20.6402 22.0625 23.465 21.9508 23.7262 20.012C23.9177 18.5989 23.5392 16.6661 21.7104 16.9818ZM33.7561 17.4404C32.8908 18.31 33.0125 20.9635 34.433 21.4207C36.4221 22.061 36.7709 19.9465 36.6032 18.4604C36.4429 17.0428 34.7462 16.4457 33.7576 17.4389L33.7561 17.4404Z" fill="white"/>
</g>
<defs>
<clipPath id="clip0_10176_762">
<rect width="57" height="46" fill="white"/>
</clipPath>
</defs>
</svg>
