<svg width="156" height="112" viewBox="0 0 156 112" fill="none" xmlns="http://www.w3.org/2000/svg">
<g clip-path="url(#clip0_107_538)">
<path d="M104.071 39.7017L96.965 43.9795C77.223 58.0775 73.888 86.5001 89.7861 104.831H17.5156C10.4139 104.831 0 95.2054 0 88.0409V39.7017H104.071ZM26.0984 72.3477C20.3235 73.3175 20.2963 81.9186 26.0984 83.0379C33.2728 82.4035 42.9189 84.1754 49.8024 83.0968C55.5137 82.2041 55.8318 73.748 50.0887 72.3387C42.8371 72.9822 33.0547 71.1786 26.0984 72.3432V72.3477Z" fill="#3B82F6"/>
<path d="M141.483 28.844H0V16.8034C0 9.45758 9.83235 0.267368 17.2157 0.0543799L123.3 0C132.487 0.466761 141.483 9.62978 141.483 18.8381V28.844Z" fill="#3B82F6"/>
<path d="M117.266 43.5312C147.095 40.6718 166.805 72.8148 149.585 97.4716C134.818 118.616 102.286 116.21 90.6222 93.3115C79.9811 72.4206 93.7391 45.788 117.266 43.5312ZM130.501 65.8905C129.906 66.0219 128.888 66.7741 128.425 67.2137L117.847 80.4008C116.334 79.1863 114.617 76.4764 112.668 76.0776C107.724 75.058 104.099 79.5489 106.443 83.9809C107.165 85.3449 114.921 93.026 116.234 93.5517C118.138 94.313 120.142 94.1318 121.764 92.7995L137.117 73.5127C139.13 68.8451 135.513 64.7757 130.497 65.895L130.501 65.8905Z" fill="#3B82F6"/>
</g>
<defs>
<clipPath id="clip0_107_538">
<rect width="156" height="112" fill="white"/>
</clipPath>
</defs>
</svg>
