<svg width="24" height="24" viewBox="0 0 24 24" fill="none" xmlns="http://www.w3.org/2000/svg">
<mask id="mask0_10070_894" style="mask-type:alpha" maskUnits="userSpaceOnUse" x="-1" y="0" width="25" height="24">
<rect x="-0.000488281" width="24" height="24" fill="#D9D9D9"/>
</mask>
<g mask="url(#mask0_10070_894)">
<path d="M11.9993 13.3969L7.09932 18.2969C6.91598 18.4802 6.68265 18.5719 6.39932 18.5719C6.11598 18.5719 5.88265 18.4802 5.69932 18.2969C5.51598 18.1135 5.42432 17.8802 5.42432 17.5969C5.42432 17.3135 5.51598 17.0802 5.69932 16.8969L10.5993 11.9969L5.69932 7.09688C5.51598 6.91354 5.42432 6.68021 5.42432 6.39688C5.42432 6.11354 5.51598 5.88021 5.69932 5.69688C5.88265 5.51354 6.11598 5.42188 6.39932 5.42188C6.68265 5.42188 6.91598 5.51354 7.09932 5.69688L11.9993 10.5969L16.8993 5.69688C17.0827 5.51354 17.316 5.42188 17.5993 5.42188C17.8827 5.42188 18.116 5.51354 18.2993 5.69688C18.4826 5.88021 18.5743 6.11354 18.5743 6.39688C18.5743 6.68021 18.4826 6.91354 18.2993 7.09688L13.3993 11.9969L18.2993 16.8969C18.4826 17.0802 18.5743 17.3135 18.5743 17.5969C18.5743 17.8802 18.4826 18.1135 18.2993 18.2969C18.116 18.4802 17.8827 18.5719 17.5993 18.5719C17.316 18.5719 17.0827 18.4802 16.8993 18.2969L11.9993 13.3969Z" fill="#94A3B8"/>
</g>
</svg>
