<svg width="24" height="21" viewBox="0 0 24 21" fill="none" xmlns="http://www.w3.org/2000/svg">
<g clip-path="url(#clip0_10100_1002)">
<path d="M18.1592 6.125L12.0657 12.3618C11.5905 13.2148 11.2503 14.2679 10.9453 15.2122C10.5656 16.3866 10.2749 17.3973 11.3106 18.3686C12.3463 19.3399 13.2133 18.9594 14.3186 18.5899C15.2746 18.27 16.3727 17.9538 17.1385 17.3053C17.7472 16.7897 18.2905 16.1463 18.9106 15.6373V18.7257C18.9106 19.7693 17.5118 21.0488 16.4689 20.997L2.28954 20.9875C1.30411 20.9619 0 19.7197 0 18.7257V6.125H18.1592ZM4.12261 7.88723C3.15871 8.13481 3.22904 9.48661 4.21735 9.6239L12.3269 9.62025C13.2686 9.37706 13.2801 8.11363 12.3269 7.87774L4.12333 7.88723H4.12261ZM4.12261 11.3861C3.18742 11.5855 3.22617 12.987 4.16783 13.1177C5.59108 13.3149 7.42127 12.9833 8.88759 13.1192C9.82924 12.876 9.84072 11.6125 8.88759 11.3766L4.12261 11.3861ZM4.12261 14.885C3.23694 15.0369 3.21182 16.4107 4.07955 16.5969C4.48506 16.6838 6.738 16.6867 7.16863 16.6181C8.07153 16.4742 8.12177 15.072 7.21385 14.8843C6.82485 14.804 4.53674 14.8142 4.12261 14.885Z" fill="#3B82F6"/>
<path d="M18.9113 4.37753H0V2.27278C0 1.27883 1.30411 0.0365811 2.28954 0.0110204L16.4689 0.00152637C17.5125 -0.0503255 18.9106 1.22917 18.9106 2.27278V4.37753H18.9113Z" fill="#3B82F6"/>
<path d="M21.7466 5.32175C22.3036 5.2772 23.233 6.28064 23.5861 6.70276C24.0118 7.21252 24.1804 7.64851 23.7448 8.23349L16.007 16.104L12.9602 17.2148C12.5605 17.2937 12.2368 16.9643 12.3143 16.5575L13.4059 13.4574L21.0849 5.63651C21.2456 5.47803 21.5241 5.33855 21.7459 5.32102L21.7466 5.32175Z" fill="#3B82F6"/>
</g>
<defs>
<clipPath id="clip0_10100_1002">
<rect width="24" height="21" fill="white"/>
</clipPath>
</defs>
</svg>
