<svg width="16" height="18" viewBox="0 0 16 18" fill="none" xmlns="http://www.w3.org/2000/svg">
<path d="M5.98245 3.57592L6.47695 2.30341C6.56088 2.08876 6.70785 1.90457 6.89852 1.77511C7.08919 1.64564 7.31461 1.57697 7.54507 1.57814H8.47144C8.70106 1.57797 8.92539 1.64711 9.11508 1.77651C9.30477 1.90591 9.45099 2.08955 9.53461 2.30341L10.0291 3.57592L11.6774 4.53195L13.0291 4.32756C13.2551 4.2942 13.4859 4.32947 13.6916 4.42881C13.8973 4.52814 14.0685 4.68697 14.1829 4.8847L14.6477 5.68908C14.7622 5.88789 14.8141 6.11655 14.7967 6.34527C14.7794 6.574 14.6936 6.79221 14.5505 6.97149L13.6983 8.03961V9.95168L14.5505 11.0198C14.6936 11.1991 14.7794 11.4173 14.7967 11.646C14.8141 11.8747 14.7622 12.1034 14.6477 12.3022L14.1829 13.1066C14.0685 13.3043 13.8973 13.4631 13.6916 13.5625C13.4859 13.6618 13.2551 13.6971 13.0291 13.6637L11.6774 13.4593L10.0291 14.4154L9.53461 15.6879C9.45099 15.9017 9.30477 16.0854 9.11508 16.2148C8.92539 16.3442 8.70106 16.4133 8.47144 16.4131H7.54507C7.31545 16.4133 7.09112 16.3442 6.90143 16.2148C6.71174 16.0854 6.56552 15.9017 6.4819 15.6879L5.9874 14.4154L4.33906 13.4593L2.98743 13.6637C2.76143 13.6971 2.53061 13.6618 2.32489 13.5625C2.11917 13.4631 1.94801 13.3043 1.83359 13.1066L1.35228 12.3022C1.23786 12.1034 1.18594 11.8747 1.20328 11.646C1.22063 11.4173 1.30644 11.1991 1.44953 11.0198L2.30172 9.95168V8.03961L1.44953 6.97149C1.30644 6.79221 1.22063 6.574 1.20328 6.34527C1.18594 6.11655 1.23786 5.88789 1.35228 5.68908L1.81711 4.8847C1.93153 4.68697 2.10268 4.52814 2.30841 4.42881C2.51413 4.32947 2.74494 4.2942 2.97094 4.32756L4.32258 4.53195L5.98245 3.57592ZM5.94784 8.99564C5.94784 9.5421 6.16492 10.0662 6.55132 10.4526C6.93772 10.839 7.4618 11.0561 8.00825 11.0561C8.55471 11.0561 9.07879 10.839 9.46519 10.4526C9.85159 10.0662 10.0687 9.5421 10.0687 8.99564C10.0687 8.44919 9.85159 7.92511 9.46519 7.53871C9.07879 7.1523 8.55471 6.93523 8.00825 6.93523C7.4618 6.93523 6.93772 7.1523 6.55132 7.53871C6.16492 7.92511 5.94784 8.44919 5.94784 8.99564Z" stroke="#666F8D" stroke-width="1.3" stroke-linecap="round"/>
</svg>
