<svg width="10" height="10" viewBox="0 0 10 10" fill="none" xmlns="http://www.w3.org/2000/svg">
<g clip-path="url(#clip0_10094_2134)">
<path d="M4.74268 9.993C5.19332 9.44217 5.70069 8.936 6.13226 8.37076C6.21564 8.20798 6.22933 8.04568 6.24058 7.86679L5.48454 1.79688H9.20362C9.48505 1.79688 9.82151 2.0934 9.92396 2.34405L9.99438 2.59518V9.21447C9.92347 9.6318 9.63201 9.92247 9.2134 9.99325H4.74268V9.993ZM7.63212 4.08417C7.61182 4.18228 7.64703 4.33847 7.63212 4.44439L6.70614 4.44561C6.47947 4.49711 6.37164 4.7707 6.54549 4.94398C6.63718 5.0355 6.82032 5.02207 6.84184 5.04746C6.86189 5.07137 6.93231 5.31543 6.95921 5.37815C7.10347 5.713 7.28564 6.01685 7.51035 6.30385C7.50888 6.32094 7.32256 6.48006 7.29004 6.5074C7.08416 6.68239 6.55723 6.94767 6.82277 7.26641C6.93476 7.40089 7.10518 7.38087 7.24065 7.29497C7.45386 7.15976 7.66586 6.90301 7.86783 6.77147C7.88788 6.75853 7.90573 6.74267 7.93189 6.74535C8.16614 6.9035 8.39231 7.14756 8.62974 7.29448C8.98673 7.51535 9.26915 7.11363 9.0283 6.85811C8.91827 6.74145 8.67718 6.60136 8.54074 6.48763C8.51042 6.46225 8.33877 6.31996 8.33877 6.30337C8.5581 6.02026 8.76055 5.72105 8.90482 5.39157C8.93318 5.32666 9.00752 5.07162 9.02805 5.04721C9.04859 5.02281 9.23271 5.03501 9.32441 4.94373C9.49826 4.77045 9.39067 4.49686 9.16376 4.44537L8.21822 4.44415V4.08392C8.21822 4.01705 8.07298 3.8877 8.00427 3.86915C7.8578 3.82986 7.66317 3.93578 7.6326 4.08392L7.63212 4.08417Z" fill="#3B82F6"/>
<path d="M0.79468 0.0342963C1.81138 0.0901851 2.94837 -0.0601533 3.95138 0.0289271C4.31448 0.0611425 4.60741 0.297144 4.7282 0.636382C5.07272 3.06596 5.33338 5.51091 5.65785 7.94463C5.65638 8.07252 5.57814 8.14305 5.5038 8.23482L0.828178 8.24409C0.361643 8.19967 0.0325247 7.86483 -0.00268555 7.39819L-0.00146297 0.856276C0.0388821 0.417952 0.353329 0.0813991 0.79468 0.0342963ZM3.13543 2.17613C3.09973 2.14636 3.00412 2.11682 2.9562 2.11146C2.81805 2.09584 2.44907 2.09486 2.31361 2.11316C2.20138 2.1283 2.12509 2.18638 2.07716 2.28644L1.46245 5.29541C1.44534 5.64319 1.91383 5.74691 2.03266 5.41548C2.13511 5.12969 2.13609 4.74164 2.23512 4.44658L3.06232 4.44878C3.13787 4.74116 3.15523 5.10358 3.24448 5.38668C3.36111 5.75716 3.85308 5.651 3.82252 5.27784C3.59243 4.3536 3.49266 3.3559 3.25255 2.43898C3.23054 2.35527 3.20536 2.23446 3.13543 2.17637V2.17613Z" fill="#3B82F6"/>
<path d="M4.95744 8.82812L3.97253 9.89904C3.5258 9.71405 3.4549 9.25864 3.41504 8.82812H4.95744Z" fill="#3B82F6"/>
<path d="M8.41309 5.03125C8.35025 5.27213 8.19791 5.47982 8.06954 5.69142L7.91525 5.86861C7.72796 5.61235 7.54481 5.3373 7.4563 5.03125H8.41284H8.41309Z" fill="#3B82F6"/>
<path d="M2.34131 3.86458L2.58705 2.69531L2.71151 2.69751L2.94673 3.86458H2.34131Z" fill="#3B82F6"/>
</g>
<defs>
<clipPath id="clip0_10094_2134">
<rect width="9.99653" height="9.99653" fill="white" transform="translate(-0.00219727)"/>
</clipPath>
</defs>
</svg>
