<svg width="11" height="11" viewBox="0 0 11 11" fill="none" xmlns="http://www.w3.org/2000/svg">
<g clip-path="url(#clip0_10074_809)">
<path d="M10.4838 9.1358C10.4958 9.23501 10.4958 9.485 10.4838 9.58421C10.3301 10.8578 8.58275 10.3972 7.72351 10.4818C7.64761 10.4865 7.58958 10.4407 7.55281 10.3784L7.53706 7.03956C7.53338 6.95753 7.58327 6.88905 7.66678 6.87603C8.21825 6.90962 8.83065 6.82733 9.37503 6.8742C10.1324 6.9393 10.5786 7.85983 10.13 8.48323C10.2424 8.62124 10.3561 8.74624 10.4205 8.91628C10.4378 8.96237 10.4788 9.09335 10.4838 9.13606V9.1358ZM8.22508 8.23923H9.35429C9.40576 8.23923 9.51815 8.14627 9.5494 8.10148C9.65865 7.94446 9.63554 7.74239 9.4806 7.62651C9.46616 7.61583 9.36138 7.55698 9.35429 7.55698H8.22508V8.23923ZM8.22508 9.79852H9.4722C9.48716 9.79852 9.59247 9.75634 9.61374 9.7441C9.84877 9.61103 9.86295 9.17278 9.65917 9.00846C9.64236 8.99492 9.56043 8.94076 9.55072 8.94076H8.22508V9.79852Z" fill="#3B82F6"/>
<path d="M2.43156 0.5L2.51954 0.559111L3.65032 3.95971C3.64585 4.03471 3.59622 4.0933 3.52033 4.10501C3.43866 4.11777 3.09806 4.11777 3.04081 4.07663C2.9489 4.01023 2.82679 3.43213 2.79265 3.42276L1.3491 3.43552C1.28529 3.56676 1.20152 4.02325 1.08729 4.08783C1.0387 4.11517 0.640069 4.11829 0.585972 4.09616C0.53844 4.07663 0.494322 3.99252 0.497474 3.94044L1.60567 0.606244L1.70493 0.5H2.43156ZM2.56917 2.74155L2.05866 1.29918L1.58702 2.74155H2.56891H2.56917Z" fill="#3B82F6"/>
<path d="M6.11891 1.2596C6.18745 1.24788 6.27963 1.29527 6.30536 1.35881C6.38913 1.56583 6.17485 1.84837 6.54538 1.88092C7.72343 1.98456 8.92039 1.54031 9.81561 2.57255C10.8726 3.79123 10.1342 5.60728 8.54697 5.81508C6.53383 5.86508 4.51492 5.82394 2.49968 5.83618C1.64149 5.93799 1.0803 6.80357 1.41328 7.61759C1.89621 8.7993 3.44953 8.30714 4.44375 8.40869C4.77306 8.32901 4.39149 7.7806 4.79696 7.80638L6.20925 8.58837C6.37916 8.7118 6.34633 8.82403 6.18903 8.9321C5.86602 9.15396 5.29696 9.4628 4.93929 9.64118C4.8437 9.68883 4.77962 9.74899 4.67222 9.68493C4.47815 9.56905 4.73341 9.16282 4.43614 9.10084C3.15935 9.01856 1.65436 9.44145 0.889648 8.11782C0.113386 6.77415 1.11549 5.19689 2.61759 5.13439L8.45111 5.13491C9.25206 5.03361 9.79145 4.29433 9.56141 3.50739C9.16461 2.14966 7.50678 2.6551 6.45242 2.56656C6.16618 2.6301 6.49864 3.20272 6.11392 3.16809L4.6604 2.34886C4.57505 2.27882 4.56192 2.15747 4.65252 2.08612L6.11944 1.25986L6.11891 1.2596Z" fill="#3B82F6"/>
</g>
<defs>
<clipPath id="clip0_10074_809">
<rect width="9.99556" height="9.99556" fill="white" transform="translate(0.49707 0.5)"/>
</clipPath>
</defs>
</svg>
